{"accessors" : [{"bufferView" : 0, "byteOffset" : 0, "componentType" : 5123, "count" : 438, "type" : "SCALAR", "max" : [437], "min" : [0]}, {"bufferView" : 1, "byteOffset" : 0, "componentType" : 5126, "count" : 438, "type" : "VEC3", "max" : [1.373290777206421, 2.0976009368896484, 1.4926695823669434], "min" : [-1.373290777206421, -2.4045488834381104, -0.3992505669593811], "name" : "POSITION"}, {"bufferView" : 1, "byteOffset" : 12, "componentType" : 5126, "count" : 438, "type" : "VEC3", "max" : [0.9999666213989258, 1.0000044107437134, 1.0000044107437134], "min" : [-0.9999666213989258, -1.0000044107437134, -1.0000044107437134], "name" : "NORMAL"}, {"bufferView" : 1, "byteOffset" : 24, "componentType" : 5126, "count" : 438, "type" : "VEC2", "max" : [0.75, 1], "min" : [0, 0.125], "name" : "TEXCOORD_0"}, {"bufferView" : 0, "byteOffset" : 876, "componentType" : 5123, "count" : 84, "type" : "SCALAR", "max" : [83], "min" : [0]}, {"bufferView" : 2, "byteOffset" : 0, "componentType" : 5126, "count" : 84, "type" : "VEC3", "max" : [1.064159631729126, 2.0976009368896484, 1.3714556694030762], "min" : [-1.064159631729126, -2.522376775741577, -0.22111643850803375], "name" : "POSITION"}, {"bufferView" : 2, "byteOffset" : 12, "componentType" : 5126, "count" : 84, "type" : "VEC3", "max" : [1.0000044107437134, 0.9828144311904907, 0.5630898475646973], "min" : [-1.0000044107437134, -1.0000044107437134, -3.179093255312182E-08], "name" : "NORMAL"}, {"bufferView" : 2, "byteOffset" : 24, "componentType" : 5126, "count" : 84, "type" : "VEC2", "max" : [1, 1], "min" : [0, 0], "name" : "TEXCOORD_0"}, {"bufferView" : 0, "byteOffset" : 1044, "componentType" : 5123, "count" : 450, "type" : "SCALAR", "max" : [449], "min" : [0]}, {"bufferView" : 3, "byteOffset" : 0, "componentType" : 5126, "count" : 450, "type" : "VEC3", "max" : [1.3521591424942017, 1.5985387563705444, 0.8559434413909912], "min" : [-1.3521591424942017, -2.497769355773926, -0.6815707683563232], "name" : "POSITION"}, {"bufferView" : 3, "byteOffset" : 12, "componentType" : 5126, "count" : 450, "type" : "VEC3", "max" : [1.0000044107437134, 0.9998644590377808, 1.0000044107437134], "min" : [-1.0000044107437134, -1.0000044107437134, -0.9991251230239868], "name" : "NORMAL"}, {"bufferView" : 3, "byteOffset" : 24, "componentType" : 5126, "count" : 450, "type" : "VEC2", "max" : [1, 1], "min" : [0, 0], "name" : "TEXCOORD_0"}, {"bufferView" : 0, "byteOffset" : 1944, "componentType" : 5123, "count" : 111, "type" : "SCALAR", "max" : [110], "min" : [0]}, {"bufferView" : 4, "byteOffset" : 0, "componentType" : 5126, "count" : 111, "type" : "VEC3", "max" : [0.2405223250389099, -2.4003520011901855, 0.022074244916439056], "min" : [-0.22391170263290405, -2.494494915008545, -0.4493315517902374], "name" : "POSITION"}, {"bufferView" : 4, "byteOffset" : 12, "componentType" : 5126, "count" : 111, "type" : "VEC3", "max" : [0.9632658958435059, 3.129546826130536E-07, 0.9508929252624512], "min" : [-0.9651670455932617, -1.0000044107437134, -0.9754782915115356], "name" : "NORMAL"}, {"bufferView" : 4, "byteOffset" : 24, "componentType" : 5126, "count" : 111, "type" : "VEC2", "max" : [1, 1], "min" : [0, 0], "name" : "TEXCOORD_0"}], "asset" : {"generator" : "Aspose.3D 24.9.0", "version" : "2.0"}, "buffers" : [{"uri" : "data:application/octet-stream;base64,", "byteLength" : 36844}], "bufferViews" : [{"buffer" : 0, "byteOffset" : 0, "byteLength" : 2168, "target" : 34963}, {"buffer" : 0, "byteOffset" : 2172, "byteLength" : 14016, "byteStride" : 32, "target" : 34962}, {"buffer" : 0, "byteOffset" : 16192, "byteLength" : 2688, "byteStride" : 32, "target" : 34962}, {"buffer" : 0, "byteOffset" : 18884, "byteLength" : 14400, "byteStride" : 32, "target" : 34962}, {"buffer" : 0, "byteOffset" : 33288, "byteLength" : 3552, "byteStride" : 32, "target" : 34962}], "materials" : [{"name" : "Material", "pbrMetallicRoughness" : {"baseColorFactor" : [0.1655888706445694, 0.3867928385734558, 0.44797825813293457, 1], "metallicFactor" : 1, "roughnessFactor" : 1}, "emissiveFactor" : [0, 0, 0], "alphaMode" : "OPAQUE", "doubleSided" : false}, {"name" : "m2", "pbrMetallicRoughness" : {"baseColorFactor" : [0.800000011920929, 0.800000011920929, 0.800000011920929, 1], "metallicFactor" : 1, "roughnessFactor" : 1}, "emissiveFactor" : [0, 0, 0], "alphaMode" : "OPAQUE", "doubleSided" : false}, {"name" : "m3.001", "pbrMetallicRoughness" : {"baseColorFactor" : [0.03106330893933773, 0.03106330893933773, 0.03106330893933773, 1], "metallicFactor" : 1, "roughnessFactor" : 1}, "emissiveFactor" : [0, 0, 0], "alphaMode" : "OPAQUE", "doubleSided" : false}, {"name" : "m3", "pbrMetallicRoughness" : {"baseColorFactor" : [0.8000000715255737, 0.45241686701774597, 0.10360405594110489, 1], "metallicFactor" : 1, "roughnessFactor" : 1}, "emissiveFactor" : [0, 0, 0], "alphaMode" : "OPAQUE", "doubleSided" : false}], "meshes" : [{"primitives" : [{"attributes" : {"POSITION" : 1, "NORMAL" : 2, "TEXCOORD_0" : 3}, "indices" : 0, "material" : 0, "mode" : 4}, {"attributes" : {"POSITION" : 5, "NORMAL" : 6, "TEXCOORD_0" : 7}, "indices" : 4, "material" : 1, "mode" : 4}, {"attributes" : {"POSITION" : 9, "NORMAL" : 10, "TEXCOORD_0" : 11}, "indices" : 8, "material" : 2, "mode" : 4}], "name" : "Cube.001"}, {"primitives" : [{"attributes" : {"POSITION" : 13, "NORMAL" : 14, "TEXCOORD_0" : 15}, "indices" : 12, "material" : 3, "mode" : 4}], "name" : ""}], "nodes" : [{"matrix" : [100, 0, 0, 0, 0, -1.6292067955264296E-05, -99.99999999999866, 0, 0, 99.99999999999866, -1.6292067955264296E-05, 0, 0, 0, 0, 1], "mesh" : 0, "name" : "Cube"}, {"matrix" : [-10.728359740364274, -99.42285362611705, 0, 0, 7.5062160432526006E-06, -8.099685642069886E-07, -99.99999999999972, 0, 99.42285362611675, -10.728359740364244, 7.549790530895136E-06, 0, 19.75589370727539, -21.341733932495117, 0, 1], "mesh" : 1, "name" : ""}], "scene" : 0, "scenes" : [{"nodes" : [0, 1]}]}