{
	"asset":{
		"generator":"Khronos glTF Blender I/O v3.6.27",
		"version":"2.0"
	},
	"scene":0,
	"scenes":[
		{
			"name":"Scene",
			"nodes":[
				0,
				1
			]
		}
	],
	"nodes":[
		{
			"mesh":0,
			"name":"Cube"
		},
		{
			"mesh":1,
			"name":"\u5e73\u9762",
			"rotation":[
				0,
				0,
				-0.7440710663795471,
				0.6681004762649536
			],
			"translation":[
				0.1975589394569397,
				-0.21341733634471893,
				0
			]
		}
	],
	"materials":[
		{
			"doubleSided":true,
			"name":"Material.008",
			"pbrMetallicRoughness":{
				"baseColorFactor":[
					0.1655888706445694,
					0.3867928385734558,
					0.44797825813293457,
					1
				],
				"metallicFactor":0,
				"roughnessFactor":0.5
			}
		},
		{
			"doubleSided":true,
			"name":"m2",
			"pbrMetallicRoughness":{
				"baseColorFactor":[
					0.800000011920929,
					0.800000011920929,
					0.800000011920929,
					1
				],
				"metallicFactor":0,
				"roughnessFactor":0.5
			}
		},
		{
			"doubleSided":true,
			"name":"m3.001",
			"pbrMetallicRoughness":{
				"baseColorFactor":[
					0.03106330893933773,
					0.03106330893933773,
					0.03106330893933773,
					1
				],
				"metallicFactor":0,
				"roughnessFactor":0.5
			}
		},
		{
			"doubleSided":true,
			"name":"m3",
			"pbrMetallicRoughness":{
				"baseColorFactor":[
					0.8000000715255737,
					0.45241686701774597,
					0.10360405594110489,
					1
				],
				"metallicFactor":0,
				"roughnessFactor":0.5
			}
		}
	],
	"meshes":[
		{
			"name":"Cube.009",
			"primitives":[
				{
					"attributes":{
						"POSITION":0,
						"NORMAL":1,
						"TEXCOORD_0":2
					},
					"indices":3,
					"material":0
				},
				{
					"attributes":{
						"POSITION":4,
						"NORMAL":5,
						"TEXCOORD_0":6
					},
					"indices":7,
					"material":1
				},
				{
					"attributes":{
						"POSITION":8,
						"NORMAL":9,
						"TEXCOORD_0":10
					},
					"indices":11,
					"material":2
				}
			]
		},
		{
			"name":"\u5e73\u9762",
			"primitives":[
				{
					"attributes":{
						"POSITION":12,
						"NORMAL":13,
						"TEXCOORD_0":14
					},
					"indices":15,
					"material":3
				}
			]
		}
	],
	"accessors":[
		{
			"bufferView":0,
			"componentType":5126,
			"count":266,
			"max":[
				1.373290777206421,
				1.4926695823669434,
				2.4045488834381104
			],
			"min":[
				-1.373290777206421,
				-0.3992505669593811,
				-2.0976009368896484
			],
			"type":"VEC3"
		},
		{
			"bufferView":1,
			"componentType":5126,
			"count":266,
			"type":"VEC3"
		},
		{
			"bufferView":2,
			"componentType":5126,
			"count":266,
			"type":"VEC2"
		},
		{
			"bufferView":3,
			"componentType":5123,
			"count":438,
			"type":"SCALAR"
		},
		{
			"bufferView":4,
			"componentType":5126,
			"count":52,
			"max":[
				1.064159631729126,
				1.3714556694030762,
				2.522376775741577
			],
			"min":[
				-1.064159631729126,
				-0.22111643850803375,
				-2.0976009368896484
			],
			"type":"VEC3"
		},
		{
			"bufferView":5,
			"componentType":5126,
			"count":52,
			"type":"VEC3"
		},
		{
			"bufferView":6,
			"componentType":5126,
			"count":52,
			"type":"VEC2"
		},
		{
			"bufferView":7,
			"componentType":5123,
			"count":84,
			"type":"SCALAR"
		},
		{
			"bufferView":8,
			"componentType":5126,
			"count":164,
			"max":[
				1.3521591424942017,
				0.8559434413909912,
				2.497769355773926
			],
			"min":[
				-1.3521591424942017,
				-0.6815707683563232,
				-1.5985387563705444
			],
			"type":"VEC3"
		},
		{
			"bufferView":9,
			"componentType":5126,
			"count":164,
			"type":"VEC3"
		},
		{
			"bufferView":10,
			"componentType":5126,
			"count":164,
			"type":"VEC2"
		},
		{
			"bufferView":11,
			"componentType":5123,
			"count":450,
			"type":"SCALAR"
		},
		{
			"bufferView":12,
			"componentType":5126,
			"count":49,
			"max":[
				0.2405223250389099,
				0.022074244916439056,
				2.494494915008545
			],
			"min":[
				-0.22391170263290405,
				-0.4493315517902374,
				2.4003520011901855
			],
			"type":"VEC3"
		},
		{
			"bufferView":13,
			"componentType":5126,
			"count":49,
			"type":"VEC3"
		},
		{
			"bufferView":14,
			"componentType":5126,
			"count":49,
			"type":"VEC2"
		},
		{
			"bufferView":15,
			"componentType":5123,
			"count":111,
			"type":"SCALAR"
		}
	],
	"bufferViews":[
		{
			"buffer":0,
			"byteLength":3192,
			"byteOffset":0,
			"target":34962
		},
		{
			"buffer":0,
			"byteLength":3192,
			"byteOffset":3192,
			"target":34962
		},
		{
			"buffer":0,
			"byteLength":2128,
			"byteOffset":6384,
			"target":34962
		},
		{
			"buffer":0,
			"byteLength":876,
			"byteOffset":8512,
			"target":34963
		},
		{
			"buffer":0,
			"byteLength":624,
			"byteOffset":9388,
			"target":34962
		},
		{
			"buffer":0,
			"byteLength":624,
			"byteOffset":10012,
			"target":34962
		},
		{
			"buffer":0,
			"byteLength":416,
			"byteOffset":10636,
			"target":34962
		},
		{
			"buffer":0,
			"byteLength":168,
			"byteOffset":11052,
			"target":34963
		},
		{
			"buffer":0,
			"byteLength":1968,
			"byteOffset":11220,
			"target":34962
		},
		{
			"buffer":0,
			"byteLength":1968,
			"byteOffset":13188,
			"target":34962
		},
		{
			"buffer":0,
			"byteLength":1312,
			"byteOffset":15156,
			"target":34962
		},
		{
			"buffer":0,
			"byteLength":900,
			"byteOffset":16468,
			"target":34963
		},
		{
			"buffer":0,
			"byteLength":588,
			"byteOffset":17368,
			"target":34962
		},
		{
			"buffer":0,
			"byteLength":588,
			"byteOffset":17956,
			"target":34962
		},
		{
			"buffer":0,
			"byteLength":392,
			"byteOffset":18544,
			"target":34962
		},
		{
			"buffer":0,
			"byteLength":222,
			"byteOffset":18936,
			"target":34963
		}
	],
	"buffers":[
		{
			"byteLength":19160,
			"uri":"data:application/octet-stream;base64,"
		}
	]
}
