{
	"asset":{
		"generator":"Khronos glTF Blender I/O v3.6.27",
		"version":"2.0"
	},
	"scene":0,
	"scenes":[
		{
			"name":"Scene",
			"nodes":[
				0
			]
		}
	],
	"nodes":[
		{
			"mesh":0,
			"name":"Cube"
		}
	],
	"materials":[
		{
			"doubleSided":true,
			"name":"material01",
			"pbrMetallicRoughness":{
				"baseColorTexture":{
					"index":0
				},
				"metallicFactor":0,
				"roughnessFactor":0.5
			}
		}
	],
	"meshes":[
		{
			"name":"Cube.005",
			"primitives":[
				{
					"attributes":{
						"POSITION":0,
						"NORMAL":1,
						"TEXCOORD_0":2
					},
					"indices":3,
					"material":0
				}
			]
		}
	],
	"textures":[
		{
			"sampler":0,
			"source":0
		}
	],
	"images":[
		{
			"bufferView":4,
			"mimeType":"image/png",
			"name":"floortex"
		}
	],
	"accessors":[
		{
			"bufferView":0,
			"componentType":5126,
			"count":95,
			"max":[
				11.418044090270996,
				6.191738605499268,
				6.969549655914307
			],
			"min":[
				-10.66377067565918,
				-0.14262771606445312,
				-15.099202156066895
			],
			"type":"VEC3"
		},
		{
			"bufferView":1,
			"componentType":5126,
			"count":95,
			"type":"VEC3"
		},
		{
			"bufferView":2,
			"componentType":5126,
			"count":95,
			"type":"VEC2"
		},
		{
			"bufferView":3,
			"componentType":5123,
			"count":147,
			"type":"SCALAR"
		}
	],
	"bufferViews":[
		{
			"buffer":0,
			"byteLength":1140,
			"byteOffset":0,
			"target":34962
		},
		{
			"buffer":0,
			"byteLength":1140,
			"byteOffset":1140,
			"target":34962
		},
		{
			"buffer":0,
			"byteLength":760,
			"byteOffset":2280,
			"target":34962
		},
		{
			"buffer":0,
			"byteLength":294,
			"byteOffset":3040,
			"target":34963
		},
		{
			"buffer":0,
			"byteLength":1020,
			"byteOffset":3336
		}
	],
	"samplers":[
		{
			"magFilter":9729,
			"minFilter":9987
		}
	],
	"buffers":[
		{
			"byteLength":4356,
			"uri":"data:application/octet-stream;base64,"
		}
	]
}
